<svg width="26" height="16" fill="none" xmlns="http://www.w3.org/2000/svg"><path d="M23.9 0H2.2C1.7 0 1.2.2.8.6.3 1 0 1.5 0 2.2V13.8C0 15 1 16 2.2 16h21.6c.6 0 1.1-.2 1.5-.6.4-.4.7-.9.7-1.5V2.2C26 1 25 0 23.9 0Z" fill="#0B7B77"/><path d="M2.2 0C1.7 0 1.2.2.8.6 3.3 4.9 7.3 11.8 9.7 16H15C12.5 11.6 8.2 4.2 5.8 0H2.2Z" fill="#10856E"/><path d="M0 13.8C0 15 1 16 2.2 16h2.2C3.2 13.9 1.6 11.2 0 8.4v5.4Z" fill="#17975E"/><path d="M5.8 0c2.5 4.2 6.7 11.6 9.3 16h5.3c-2.5-4.4-6.8-11.8-9.3-16H5.8Z" fill="#0B7B77"/><path d="M0 2.2v6.2c1.6 2.8 3.2 5.5 4.4 7.6h5.3C7.3 11.8 3.3 4.9.8.6.3 1 0 1.5 0 2.2Z" fill="#138E66"/><path d="M11.1 0c2.5 4.2 6.7 11.6 9.3 16h3.5c.6 0 1.1-.2 1.5-.6-2.7-4.4-6.7-11.3-9-15.4h-5.3Z" fill="#07717F"/><path d="M26 13.9V7.4C24.4 4.7 22.9 2 21.7 0h-5.3c2.4 4.1 6.4 11 8.9 15.4.4-.4.7-.9.7-1.5Z" fill="#056788"/><path d="M26 2.2C26 1 25 0 23.9 0h-2.2c1.2 2 2.7 4.7 4.3 7.4V2.2Z" fill="#025F8E"/><path d="M20.4 7.7H14v-4h6.4c1.1 0 2 .9 2 2s-.9 2-2 2ZM20.4 12.3H14v-4h6.4c1.1 0 2 .9 2 2s-.9 2-2 2ZM8.7 8.3v-.6h4.8c-.1-2.4-2-4.3-4.4-4.3H8c-2.4 0-4.4 2-4.4 4.4v.3c0 2.4 2 4.4 4.4 4.4h1c2.4 0 4.3-1.9 4.4-4.3H8.7v.1Z" fill="#fff"/></svg>
