<svg id="Visa" xmlns="http://www.w3.org/2000/svg" viewBox="0 0 26 16" width="26px" height="16px"><title>icon-boleto-small</title><rect width="26" height="16" rx="2" ry="2"/><path id="Rounded_Rectangle_61" data-name="Rounded Rectangle 61" d="M10.09,11.63V4.36H13a4,4,0,0,1,1.41.22,1.93,1.93,0,0,1,.84.68,1.73,1.73,0,0,1,.3,1,1.57,1.57,0,0,1-.27.87,1.85,1.85,0,0,1-.8.67,2,2,0,0,1,1.07.66,1.7,1.7,0,0,1,.38,1.11,2.11,2.11,0,0,1-.23,1,1.74,1.74,0,0,1-.56.67,2.28,2.28,0,0,1-.85.36,5.67,5.67,0,0,1-1.24.13H10.09Zm1-4.21h1.66a3.9,3.9,0,0,0,1-.09A1.07,1.07,0,0,0,14.33,7a1,1,0,0,0,.19-.64,1.08,1.08,0,0,0-.18-.63.9.9,0,0,0-.53-.38,4.56,4.56,0,0,0-1.17-.11H11.11V7.42Zm0,3.36H13a5.32,5.32,0,0,0,.69,0,1.7,1.7,0,0,0,.59-.19,1.18,1.18,0,0,0,.39-.41,1.31,1.31,0,0,0,.15-.61A1.15,1.15,0,0,0,14,8.39a4.18,4.18,0,0,0-1.12-.12H11.11v2.51Z" fill="#fff"/></svg>