<svg  xmlns="http://www.w3.org/2000/svg" class="icon-alipay-small" width="26" height="16" viewBox="0 0 26 16">
    <rect data-name="Rounded Rectangle 59 copy" width="26" height="16" rx="2" ry="2" fill="#009fe3"></rect>
    <path d="M14.621 9.039a21.773 21.773 0 0 0 1.257-2.907H12.96v-1h3.6v-.61h-3.6V2.91h-1.673v1.612h-3.6v.61h3.6v1H8.263v.536h5.843a12.479 12.479 0 0 1-.867 1.931 15.53 15.53 0 0 0-4.175-.8c-2.783 0-3.4 1.363-3.269 2.609.106 1 .865 2.447 3.185 2.447a6.161 6.161 0 0 0 4.883-2.593c2.008.9 4.129 2.011 5.637 2.83v-2.365c-1.594-.533-3.273-1.155-4.879-1.688zm-5.978 2.973c-1.961 0-2.265-1.077-2.3-1.72-.032-.562.357-1.618 2.571-1.618a11.388 11.388 0 0 1 3.595 1.006 5.232 5.232 0 0 1-3.868 2.332z" fill="#f5f6fa" fill-rule="evenodd"></path>
</svg>