<svg id="Klarna" xmlns="http://www.w3.org/2000/svg" width="36" height="22" viewBox="0 0 36 22">
  <title>icon-eps</title>
  <path id="Rounded_Rectangle_52" data-name="Rounded Rectangle 52" d="M3,0H33a3,3,0,0,1,3,3V19a3,3,0,0,1-3,3H3a3,3,0,0,1-3-3V3A3,3,0,0,1,3,0Z" fill="#f1f0f2"/>
  <g>
    <g>
      <path d="M27.63,11.37H25.57a.48.48,0,0,1,0-.95h3.32V8.84H25.47a2.05,2.05,0,0,0-2,2.05h0a2.05,2.05,0,0,0,2,2.06h2.21a.47.47,0,1,1,0,.94H23a4,4,0,0,1-1.47,1.69h6.06a2.11,2.11,0,0,0,2.1-2.11h0A2.1,2.1,0,0,0,27.63,11.37Z" fill="#71706f"/>
      <path d="M22.68,12.21h0a3.37,3.37,0,0,0-3.37-3.37h0a3.29,3.29,0,0,0-3.26,3.37v6.94h1.58V15.58h1.68A3.37,3.37,0,0,0,22.68,12.21Zm-1.58-.05a1.72,1.72,0,0,1-1.73,1.73H17.63V12.16a1.74,1.74,0,1,1,3.47,0Z" fill="#71706f"/>
    </g>
    <g>
      <path d="M9.22,5.79a1.47,1.47,0,0,1,2.94,0v.84h1.37V5.69a2.84,2.84,0,0,0-5.68,0v.94H9.22Z" fill="#c8026e"/>
      <path d="M15.21,13.89V9.13a1.43,1.43,0,0,0-1.44-1.44H7.71A1.44,1.44,0,0,0,6.27,9.13v6.06a1.45,1.45,0,0,0,1.44,1.44h6.06a1.45,1.45,0,0,0,1.39-1H10.69a3.37,3.37,0,0,1-3.37-3.37h0a3.37,3.37,0,0,1,3.37-3.37h0a3.37,3.37,0,0,1,3.37,3.37V13H9.2a1.72,1.72,0,0,0,1.54.94h4.47Z" fill="#c8026e"/>
      <path d="M10.74,10.42a1.73,1.73,0,0,0-1.54.95h3.09A1.74,1.74,0,0,0,10.74,10.42Z" fill="#c8026e"/>
    </g>
  </g>
</svg>
