<svg xmlns="http://www.w3.org/2000/svg" viewBox="0 0 26 16" width="26px" height="16px">
    <title>icon-ideal-small</title>
    <rect width="26" height="16" rx="2" ry="2" fill="#c52b71"/>
    <rect x="8.18" y="8.68" width="1.99" height="3.3" fill="#fff"/>
    <path d="M10.31,7A1.13,1.13,0,1,1,9.19,5.9,1.13,1.13,0,0,1,10.31,7Z" fill="#fff"/>
    <path d="M13.93,2.59H6.8V13.41h7.13a5.61,5.61,0,0,0,3.67-1.16A5.3,5.3,0,0,0,19.2,8a6.56,6.56,0,0,0-.42-2.44,4.3,4.3,0,0,0-1.18-1.7,5.54,5.54,0,0,0-3.67-1.27Zm-.14.72a4.93,4.93,0,0,1,3.34,1.08A4.61,4.61,0,0,1,18.49,8c0,3.16-1.54,4.69-4.7,4.69H7.51V3.31Z" fill="#fff"/>
    <path d="M11.52,7.69a.27.27,0,0,0,.13-.07.35.35,0,0,0,.09-.15,1.42,1.42,0,0,0,0-.33,1.27,1.27,0,0,0,0-.32.49.49,0,0,0-.1-.16.36.36,0,0,0-.15-.08h-.41V7.71h.22Z" fill="#fff"/>
    <path d="M15.05,7.28h.37l-.19-.5Z" fill="#fff"/>
    <path d="M16.45,8.13v-2h.48V7.71h.9c-.19-2.77-2.32-3.53-4.33-3.53H11.08v2h.25a1.81,1.81,0,0,1,.38,0,.73.73,0,0,1,.3.19.94.94,0,0,1,.19.32,1.53,1.53,0,0,1,.07.46,1.33,1.33,0,0,1-.06.42,1,1,0,0,1-.22.35.64.64,0,0,1-.28.16,1.15,1.15,0,0,1-.36.05h-.27V12H13.5c2.09,0,4.32-.63,4.34-3.86Zm-2.33,0H12.59v-2h1.49v.42h-1v.31H14V7.3h-.94v.41h1Zm1.62,0-.16-.43H14.9l-.16.43h-.51l.77-2h.47l.79,2Z" fill="#fff"/>
</svg>