<svg id="Visa" xmlns="http://www.w3.org/2000/svg" viewBox="0 0 26 16" width="26px" height="16px"><title>icon-poli-small</title><rect x="0.03" width="25.97" height="16" rx="2" ry="2" fill="#405787"/><g id="poli"><path id="poli-logo" d="M13.35,10.75a2.11,2.11,0,0,0,.7-.47A3.36,3.36,0,0,0,15.22,7.7,2.76,2.76,0,0,0,13.7,5.3a1.5,1.5,0,0,1,.63.37,2.61,2.61,0,0,1,1,2.06A3.51,3.51,0,0,1,14,10.46a1.85,1.85,0,0,0,.53-.48,3.5,3.5,0,0,0,.85-2.23,2.88,2.88,0,0,0-1.63-2.6,2.2,2.2,0,0,1,.76.44,2.76,2.76,0,0,1,.94,2.29,3.63,3.63,0,0,1-1.14,2.45,4.1,4.1,0,0,1-2.47,1.11h-.36A2.8,2.8,0,0,1,8.7,8.83a3.69,3.69,0,0,1,0-.47A3.57,3.57,0,0,1,9.76,6.08a3.6,3.6,0,0,1,2.46-1.19c0-.12.06-.25.07-.34.36.38.79.79,1.23,1.23l-1.58.85c0-.1,0-.23,0-.3a2.15,2.15,0,0,0-1.81,1.73,1.6,1.6,0,0,0,1.62,2A2.22,2.22,0,0,0,14,8.25a1.68,1.68,0,0,0-.64-1.68,1.61,1.61,0,0,1,.79,1.49,2.37,2.37,0,0,1-2.27,2.08,2,2,0,0,1-1.54-.72,1.88,1.88,0,0,0,1.73.76,2.31,2.31,0,0,0,1.41-.66,2.38,2.38,0,0,0,.71-1.33,2,2,0,0,0,0-.6,2.26,2.26,0,0,0-.77-1.24A2,2,0,0,1,14.3,8,2.55,2.55,0,0,1,12,10.28a2,2,0,0,1-1.64-.58,2,2,0,0,0,1.86.61,2.57,2.57,0,0,0,2.15-2.18,2.18,2.18,0,0,0-.89-2,2,2,0,0,1,1,1.63,2.52,2.52,0,0,1-.75,1.82,2.64,2.64,0,0,1-3.11.51,2.53,2.53,0,0,0,3-.38,2.48,2.48,0,0,0,.86-2.11,2.15,2.15,0,0,0-1-1.6,2,2,0,0,1,1.09,1.56,2.6,2.6,0,0,1-.92,2.22,2.9,2.9,0,0,1-2.7.68A2.9,2.9,0,0,0,14.62,8.2,2.28,2.28,0,0,0,13.7,6a1.77,1.77,0,0,1-.16-.14,2.21,2.21,0,0,1,1.14,2.5,3,3,0,0,1-3.59,2.3,1.93,1.93,0,0,0,.86.07,3,3,0,0,0,2-.92,2.9,2.9,0,0,0,.82-2.26,2.42,2.42,0,0,0-1.2-1.82,1.76,1.76,0,0,1,.67.48,2.21,2.21,0,0,1,.61,1.38A3,3,0,0,1,14,9.93a3.05,3.05,0,0,1-2.27,1,3.14,3.14,0,0,0,3-1.9,2.89,2.89,0,0,0,.13-2.07,2.87,2.87,0,0,0-1.16-1.34A2.44,2.44,0,0,1,15,8.11a3,3,0,0,1-.42,1.25,3.78,3.78,0,0,1-2,1.57,3.1,3.1,0,0,0,1.61-1,3.21,3.21,0,0,0,.9-2.32,2.77,2.77,0,0,0-1.39-2.21h0a2.48,2.48,0,0,1,1.44,2,3.47,3.47,0,0,1-1.8,3.31" fill="#fff"/><path id="poli-txt" d="M5.71,8.28h.08c.53,0,.68-.11.76-.21a1.66,1.66,0,0,0,.13-.84.88.88,0,0,0-.19-.7,1.18,1.18,0,0,0-.79-.18V8.28ZM4,11.19V5.25H5.52a10.78,10.78,0,0,1,1.37,0,2.67,2.67,0,0,1,.81.3,1.44,1.44,0,0,1,.56.67,2.64,2.64,0,0,1,.19,1.06A2.08,2.08,0,0,1,8,8.87a2.91,2.91,0,0,1-1.84.5H5.72v1.82Zm15.85,0h-3.9V5.21h1.92V9.38h2Zm2.17,0H20.16V7.26H22Zm0-4.32H20.14V5.24H22Z" fill="#131413"/></g></svg>