<svg version="1.2" xmlns="http://www.w3.org/2000/svg" viewBox="0 0 753 400" width="753" height="400">
	<title>google-pay-mark_800-svg</title>
	<style>
		.s0 { fill: #ffffff } 
		.s1 { fill: #3c4043 } 
		.s2 { fill: #4285f4 } 
		.s3 { fill: #34a853 } 
		.s4 { fill: #fabb05 } 
		.s5 { fill: #e94235 } 
	</style>
	<path id="Base_1_" class="s0" d="m752.7 200c0 110-90 200-200 200h-352c-110 0-200-90-200-200 0-110 90-200 200-200h352c110 0 200 90 200 200z"/>
	<path id="Outline" fill-rule="evenodd" class="s1" d="m752.7 200c0 110-90 200-200 200h-352c-110 0-200-90-200-200 0-110 90-200 200-200h352c110 0 200 90 200 200zm-552-183.8c-24.7 0-48.7 4.9-71.3 14.5-21.9 9.3-41.6 22.6-58.5 39.5-16.9 17-30.2 36.6-39.5 58.5-9.6 22.6-14.5 46.6-14.5 71.3 0 24.7 4.9 48.7 14.5 71.3 9.3 21.9 22.6 41.6 39.5 58.5 17 16.9 36.6 30.2 58.5 39.5 22.6 9.6 46.6 14.5 71.3 14.5h352c24.7 0 48.7-4.9 71.3-14.5 21.9-9.3 41.6-22.6 58.5-39.5 16.9-17 30.2-36.6 39.5-58.5 9.6-22.6 14.5-46.6 14.5-71.3 0-24.7-4.9-48.7-14.5-71.3-9.3-21.9-22.6-41.6-39.5-58.5-17-16.9-36.6-30.2-58.5-39.5-22.6-9.6-46.6-14.5-71.3-14.5z"/>
	<g id="G_Pay_Lockup_1_">
		<g id="Pay_Typeface_3_">
			<path id="Letter_p_3_" fill-rule="evenodd" class="s1" d="m359.3 274.7h-19.2v-149.4h50.9c12.9 0 23.9 4.3 32.9 12.9q13.8 12.9 13.8 31.5c0 12.7-4.6 23.2-13.8 31.7-8.9 8.5-19.9 12.7-32.9 12.7h-31.7zm0-78.9h32.1c7.6 0 14-2.6 19-7.7 5.1-5.1 7.7-11.3 7.7-18.3 0-6.9-2.6-13-7.7-18.1-5-5.3-11.3-7.9-19-7.9h-32.1z"/>
			<path id="Letter_a_3_" fill-rule="evenodd" class="s1" d="m487.9 169.1q21.3 0 33.6 11.4 12.3 11.4 12.3 31.2v63h-18.3v-14.2h-0.8c-7.9 11.7-18.5 17.5-31.7 17.5-11.3 0-20.7-3.3-28.3-10-7.6-6.7-11.4-15-11.4-25q0-15.9 12-25.2c8-6.3 18.7-9.4 32-9.4 11.4 0 20.8 2.1 28.1 6.3v-4.4c0-6.7-2.6-12.3-7.9-17-5.3-4.7-11.5-7-18.6-7-10.7 0-19.2 4.5-25.4 13.6l-16.9-10.6c9.3-13.5 23.1-20.2 41.3-20.2zm-24.8 74.2c0 5 2.1 9.2 6.4 12.5 4.2 3.3 9.2 5 14.9 5q12.1 0 21.6-9c6.3-6 9.5-13 9.5-21.1-6-4.7-14.3-7.1-25-7.1-7.8 0-14.3 1.9-19.5 5.6-5.3 3.9-7.9 8.6-7.9 14.1z"/>
			<path id="Letter_y_3_" class="s1" d="m638.2 172.4l-64 147.2h-19.8l23.8-51.5-42.2-95.7h20.9l30.4 73.4h0.4l29.6-73.4z"/>
		</g>
		<g id="G_Mark_1_">
			<path id="Blue_500" class="s2" d="m257.6 265h-27.6v-21.4c9.3-6.3 15.3-15.6 17.2-26.6h-46.4v-33h80.5c1.1 5.8 1.6 11.7 1.6 18 0 26-9.2 48.1-25.3 63z"/>
			<path id="Green_500_1_" class="s3" d="m257.6 265c-14.2 13.1-33.6 20.7-56.7 20.7-33.5 0-62.5-19.2-76.6-47.2v-22.1h28.5c6.8 20.3 25.7 35.4 48.1 35.4 11.5 0 21.4-3 29.1-8.2z"/>
			<path id="Yellow_500_1_" class="s4" d="m152.8 216.4l-28.5 22.1c-5.8-11.5-9.1-24.6-9.1-38.4 0-13.9 3.3-26.9 9.1-38.5h28.5v22.1c-1.8 5.1-2.7 10.7-2.7 16.4 0 5.6 0.9 11.2 2.7 16.3z"/>
			<path id="Red_500" class="s5" d="m152.8 183.7l-28.5-22.1c14.1-28 43.1-47.2 76.6-47.2 23.1 0 42.4 8.5 57.3 22.3l-24.5 24.5c-8.9-8.5-20.2-12.9-32.8-12.9-22.4 0-41.3 15.1-48.1 35.4z"/>
		</g>
	</g>
</svg>