<svg width="16" height="16" viewBox="0 0 16 16" fill="none" xmlns="http://www.w3.org/2000/svg">
<path fill-rule="evenodd" clip-rule="evenodd" d="M7.8223 4.77056C7.99963 4.6959 8.20496 4.74256 8.3263 4.87323C8.37296 4.91056 8.4103 4.96656 8.42896 5.02256C8.45696 5.07856 8.4663 5.13456 8.4663 5.1999C8.4663 5.2559 8.45696 5.32123 8.42896 5.37723C8.4103 5.43323 8.37296 5.48923 8.3263 5.52656C8.2423 5.6199 8.12096 5.66656 7.99963 5.66656C7.9343 5.66656 7.8783 5.65723 7.8223 5.62923C7.7663 5.61056 7.7103 5.57323 7.67296 5.52656C7.6263 5.48923 7.58896 5.43323 7.5703 5.37723C7.5423 5.32123 7.53296 5.2559 7.53296 5.1999C7.53296 5.13456 7.5423 5.07856 7.5703 5.02256C7.58896 4.96656 7.6263 4.91056 7.67296 4.87323C7.7103 4.82656 7.7663 4.78923 7.8223 4.77056ZM7.53334 7.06667C7.53334 6.80907 7.7424 6.6 8 6.6C8.2576 6.6 8.46667 6.80907 8.46667 7.06667V10.8C8.46667 11.0576 8.2576 11.2667 8 11.2667C7.7424 11.2667 7.53334 11.0576 7.53334 10.8V7.06667ZM8 14.0667C4.65493 14.0667 1.93333 11.3451 1.93333 8C1.93333 4.65493 4.65493 1.93333 8 1.93333C11.3451 1.93333 14.0667 4.65493 14.0667 8C14.0667 11.3451 11.3451 14.0667 8 14.0667M8 1C4.13973 1 1 4.13973 1 8C1 11.8603 4.13973 15 8 15C11.8603 15 15 11.8603 15 8C15 4.13973 11.8603 1 8 1" fill="#141414"/>
</svg>
