<svg id="Visa" xmlns="http://www.w3.org/2000/svg" viewBox="0 0 26 16" width="26px" height="16px"><title>icon-giropay-small</title><rect width="26" height="16" rx="2" ry="2" fill="#000268"/><path id="_92186184" data-name=" 92186184" d="M2.68,4.91v6.18a1.11,1.11,0,0,0,1.11,1.1H13.91V3.81H3.79a1.11,1.11,0,0,0-1.11,1.1ZM16.52,8c0,.39-.2.66-.52.66A.58.58,0,0,1,15.48,8c0-.37.21-.64.52-.64A.55.55,0,0,1,16.52,8Zm-1.89,2.26h.85V8.88h0a.84.84,0,0,0,.78.41C17,9.29,17.4,8.68,17.4,8A1.15,1.15,0,0,0,16.34,6.7a1,1,0,0,0-.92.51h0V6.76h-.78Zm3.94-1.78c0-.24.22-.33.51-.33l.36,0a.56.56,0,0,1-.52.58C18.72,8.72,18.57,8.62,18.57,8.45Zm1.72.78a2.84,2.84,0,0,1-.05-.58V7.73c0-.76-.55-1-1.18-1a2.59,2.59,0,0,0-1,.18v.58a1.54,1.54,0,0,1,.79-.19c.31,0,.56.09.56.43a2.41,2.41,0,0,0-.4,0c-.45,0-1.27.09-1.27.84,0,.54.44.78.92.78a.87.87,0,0,0,.79-.45h0c0,.13,0,.26,0,.39Zm.38,1a3.17,3.17,0,0,0,.53,0c.78,0,1-.6,1.21-1.22l.91-2.3h-.86L22,8.37h0l-.54-1.61H20.5l1,2.53a.45.45,0,0,1-.44.34,1.26,1.26,0,0,1-.33-.05Z" fill="#fff"/><path id="_47303032" data-name=" 47303032" d="M4.77,8c0-.33.16-.61.48-.61a.54.54,0,0,1,.55.58.59.59,0,0,1-.55.64C5,8.58,4.77,8.36,4.77,8ZM6.62,6.76H5.85v.45h0A1,1,0,0,0,5,6.7c-.77,0-1.11.55-1.11,1.29A1.11,1.11,0,0,0,5,9.23a1,1,0,0,0,.83-.42h0v.13c0,.48-.27.72-.76.72a1.68,1.68,0,0,1-.84-.21l0,.68a3,3,0,0,0,.94.15c1,0,1.49-.32,1.49-1.34V6.76Zm1.44-1H7.21v.63h.85V5.73Zm-.85,3.5h.85V6.76H7.21V9.23Zm3.23-2.5a2.58,2.58,0,0,0-.29,0,.76.76,0,0,0-.73.52h0V6.76H8.63V9.23h.86v-1c0-.49.22-.78.62-.78a1,1,0,0,1,.29,0Zm1.47,2c-.39,0-.56-.33-.56-.69s.17-.7.56-.7.55.33.55.7S12.3,8.69,11.91,8.69Zm0,.6a1.3,1.3,0,1,0,0-2.59,1.3,1.3,0,1,0,0,2.59Z" fill="#ff0007"/></svg>