<?xml version="1.0" encoding="utf-8"?>
<!-- Generator: Adobe Illustrator 23.0.1, SVG Export Plug-In . SVG Version: 6.00 Build 0)  -->
<svg id="Klarna" xmlns="http://www.w3.org/2000/svg" viewBox="0 0 26 16" width="26px" height="16px">
<style type="text/css">
	.st0{fill:#EB6F93;}
	.st1{fill:#FFFFFF;}
</style>
<path class="st0" d="M2,0h22c1.1,0,2,0.9,2,2v12c0,1.1-0.9,2-2,2H2c-1.1,0-2-0.9-2-2V2C0,0.9,0.9,0,2,0z"/>
<g>
	<path id="Shape_3_" class="st1" d="M16.6,3h-2.3c0,1.8-0.9,3.5-2.3,4.6l-0.9,0.7l3.5,4.7h2.8l-3.2-4.3C15.8,7.2,16.6,5.2,16.6,3z"
		/>
	<rect id="Rectangle-path_3_" x="8.5" y="3" class="st1" width="2.3" height="10"/>
</g>
<path class="st1" d="M18.9,10.4c-0.7,0-1.3,0.6-1.3,1.3s0.6,1.3,1.3,1.3c0.7,0,1.3-0.6,1.3-1.3C20.2,11,19.6,10.4,18.9,10.4z"/>
</svg>
