<svg xmlns="http://www.w3.org/2000/svg" id="Multibanco" width="36" height="22" viewBox="0 0 36 22">
    <path d="M3 0h30c1.7 0 3 1.3 3 3v16c0 1.7-1.3 3-3 3H3c-1.7 0-3-1.3-3-3V3c0-1.7 1.3-3 3-3z" fill="#ededed"></path>
    <path d="M17.948 18.372h6.3c1.4 0 1.5-1.5 1.3-2.3-.1-.5-.9-.5-1 0v.6c0 .3-.2.5-.5.5h-12.1c-.3 0-.5-.2-.5-.5v-.6c-.1-.5-1-.5-1 0-.1.8-.1 2.3 1.3 2.3h6.2zm-4.4-14.7h9.7c.7 0 1.2.6 1.2 1.3v.6c0 .9-1.2.9-1.2 0v-.3c0-.2-.2-.4-.4-.4h-9.7c-.2 0-.4.2-.4.4v.3c0 .9-1.1.9-1.1 0v-.6c0-.7.6-1.3 1.2-1.3h.7z" fill-rule="evenodd" clip-rule="evenodd" fill="#2a6bae"></path>
    <path d="M24.236 10.868c.7.3 1.1 1 1.1 1.7 0 1.1-.9 1.9-2.1 1.9h-3.2c-.3 0-.5-.2-.5-.5v-6c0-.3.2-.5.5-.5h2.6c1.1 0 2 .9 2 2 .1.6-.1 1.1-.4 1.4m-2.4-.5h1c.5-.1.8-.5.8-.9 0-.5-.4-1-1-1h-2v5h2.6c.5 0 1-.4 1-1 0-.5-.4-1-1-1h-1.4c-.3 0-.6-.2-.6-.6.1-.2.3-.5.6-.5" fill-rule="evenodd" clip-rule="evenodd" fill="#424041"></path>
    <path d="M19.05 13.915c0 .3-.2.7-.6.7-.3 0-.7-.2-.7-.6l-.5-4.8-1.8 4.7c0 .1-.1.1-.1.2l-.1.1h-.4s-.1 0-.1-.1c0 0 0-.1-.1-.1l-1.8-4.7-.5 4.8c0 .3-.4.6-.7.6-.3 0-.6-.4-.6-.7l.6-5.6v-.2c0-.1 0-.1.1-.2.2-.3.4-.5.8-.5h.4c.3.1.6.3.7.6l1.6 4 1.6-4c.1-.3.4-.6.7-.6h.4c.3 0 .6.3.8.5 0 .1.1.1.1.2v.2l.2 5.5z" fill="#424041"></path>
</svg>
