<svg id="Visa" xmlns="http://www.w3.org/2000/svg" viewBox="0 0 26 16" width="26px" height="16px"><title>icon-sepa-small</title><rect width="26" height="16" rx="2" ry="2" fill="#072694"/><path d="M8,7.11H6.8a.77.77,0,0,0-.07-.4c-.07-.11-.27-.16-.6-.16a1.41,1.41,0,0,0-.64.09A.38.38,0,0,0,5.34,7a.4.4,0,0,0,.13.36.6.6,0,0,0,.27.07l.24,0c.53,0,.86,0,1,.07a1.48,1.48,0,0,1,.91.34.83.83,0,0,1,.27.55,2.33,2.33,0,0,1,0,.46,2.34,2.34,0,0,1-.11.87,1.09,1.09,0,0,1-.92.63,4.64,4.64,0,0,1-.91.06,5.8,5.8,0,0,1-1.44-.12.93.93,0,0,1-.65-.61,3.11,3.11,0,0,1-.09-.86H5.27V9a.42.42,0,0,0,.19.41.63.63,0,0,0,.3.07h.45a1.29,1.29,0,0,0,.44,0,.31.31,0,0,0,.22-.21A.5.5,0,0,0,6.9,9a.35.35,0,0,0-.23-.39,7.58,7.58,0,0,0-.82-.08c-.39,0-.67-.05-.82-.08a1.12,1.12,0,0,1-.8-.46A1.81,1.81,0,0,1,4.05,7a2.64,2.64,0,0,1,.1-.74.77.77,0,0,1,.31-.42,1.49,1.49,0,0,1,.79-.26,8.09,8.09,0,0,1,.89,0,5.06,5.06,0,0,1,1.1.09A1.1,1.1,0,0,1,8,6.87S8,7,8,7.11Zm5.38,3.34V5.55h2.46a2.49,2.49,0,0,1,.77.08,1.19,1.19,0,0,1,.81.78,3.2,3.2,0,0,1,.11.93,3.52,3.52,0,0,1-.12,1.07,1.11,1.11,0,0,1-1,.74l-.74,0h-1v1.26Zm1.32-2.4h.82A2,2,0,0,0,16,8a.35.35,0,0,0,.15-.26,2.53,2.53,0,0,0,0-.38,1.48,1.48,0,0,0-.05-.47.39.39,0,0,0-.34-.25H14.73V8.05ZM20.37,9.6H18.61l-.24.85H17l1.47-4.9h2L22,10.45H20.62Zm-.26-.95-.62-2.13-.6,2.13Z" fill="#fff"/><path d="M10.09,7.13h2.73l0,0-.33.7H9.85v0a1.09,1.09,0,0,0,0,.18,1.18,1.18,0,0,0,0,.26v0h2.43l0,0-.33.7H10.1l0,0a1.74,1.74,0,0,0,2.42.51,1.56,1.56,0,0,0,.37-.31l0,0V10h0A2.48,2.48,0,0,1,9.46,9.3a2.16,2.16,0,0,1-.2-.36H8.37l0,0,.33-.71,0,0h.38v0a1.69,1.69,0,0,1,0-.23V7.79H8.34l0,0,.33-.7h.55A2.38,2.38,0,0,1,10.13,6a2.49,2.49,0,0,1,3.08.25v0l-.28.61h0A1.75,1.75,0,0,0,10.5,6.6a1.67,1.67,0,0,0-.42.5l0,0Z" fill="#ffbc00"/></svg>