<?xml version="1.0" encoding="utf-8"?>
<!-- Generator: Adobe Illustrator 23.0.2, SVG Export Plug-In . SVG Version: 6.00 Build 0)  -->
<svg version="1.1" id="Layer_1"
	xmlns="http://www.w3.org/2000/svg"
	xmlns:xlink="http://www.w3.org/1999/xlink" x="0px" y="0px"
	 viewBox="0 0 26 16" style="enable-background:new 0 0 26 16;" xml:space="preserve">
	<style type="text/css">
	.st0{fill:#737374;}
</style>
	<g>
		<path class="st0" d="M24,0H2C0.9,0,0,0.9,0,2v12c0,1.1,0.9,2,2,2h22c1.1,0,2-0.9,2-2V2C26,0.9,25.1,0,24,0z M24,13c0,0.6-0.4,1-1,1
		H3c-0.6,0-1-0.4-1-1V3c0-0.6,0.4-1,1-1h20c0.6,0,1,0.4,1,1V13z"/>
	</g>
	<path class="st0" d="M16,7h-2V5c0-0.6-0.4-1-1-1s-1,0.4-1,1v2h-2C9.4,7,9,7.4,9,8s0.4,1,1,1h2v2c0,0.6,0.4,1,1,1s1-0.4,1-1V9h2
	c0.6,0,1-0.4,1-1S16.6,7,16,7z"/>
</svg>
