<svg width="112" height="72" viewBox="0 0 112 72" fill="none" xmlns="http://www.w3.org/2000/svg">
<g clip-path="url(#clip0_1_1242)">
<path d="M48.7742 56.5354V60.6556H44.9766V43.5122H53.5983C55.6511 43.5122 56.6774 44.506 56.6774 46.4937V53.4711C56.6774 55.5209 55.6716 56.5354 53.6599 56.5354H48.7742ZM52.8593 48.0465C52.8593 47.5703 52.6335 47.3426 52.2024 47.3426H48.7742V52.6636H52.2024C52.6335 52.6636 52.8593 52.4359 52.8593 52.0011V48.0465Z" fill="#323E48"/>
<path d="M58.6892 46.6179H65.5045C66.3256 46.6179 66.1614 47.1562 66.1614 47.6117V48.5848C65.9356 48.4813 65.6892 48.4399 65.4429 48.4399H61.1115C59.2435 48.4399 58.2992 49.4544 58.2992 51.4628V53.3883C58.2992 55.3552 59.2435 56.3284 61.1115 56.3284H67.003C68.9737 56.3284 69.9796 55.3138 69.9796 53.2641V46.3695C69.9796 44.3197 68.9532 43.3052 66.9004 43.3052H57.9092L58.6892 46.6179ZM66.1614 52.3117C66.1614 52.6015 66.0177 52.7465 65.7303 52.7465H62.5074C62.22 52.7465 62.0763 52.6015 62.0763 52.3117V51.4007C62.0763 51.1108 62.22 50.9659 62.5074 50.9659H65.7098C65.9972 50.9659 66.1409 51.1108 66.1409 51.4007L66.1614 52.3117Z" fill="#323E48"/>
<path d="M73.2845 60.6556L75.2141 55.7072L70.4722 43.5122H74.5777L77.2258 51.2971L79.8739 43.5122H84L77.4106 60.6556H73.2845Z" fill="#323E48"/>
<path fill-rule="evenodd" clip-rule="evenodd" d="M27.9994 48.9576C27.9994 50.2827 27.9994 51.5871 27.9994 52.9122C28.0199 54.4857 28.6973 55.6452 30.0727 56.3906C30.6475 56.7011 31.2633 56.7632 31.8997 56.7632C34.3219 56.7632 36.7648 56.7632 39.187 56.7632C40.624 56.7632 41.7941 56.2042 42.5536 54.9412C42.9231 54.3201 43.0873 53.6368 43.0873 52.9122C43.0873 50.2827 43.0873 47.6739 43.0873 45.0444C43.0873 44.444 43.0052 43.8643 42.7384 43.326C42.6973 43.2224 42.7589 43.0154 42.8615 42.9119C43.6211 42.0216 44.4011 41.152 45.1812 40.2617C46.8645 38.3362 48.5683 36.4106 50.231 34.4644C50.6211 34.0089 51.0111 33.8019 51.6269 33.8019C53.6387 33.8433 55.6504 33.8226 57.6621 33.8226C58.1753 33.8226 58.668 33.719 59.1196 33.4499C59.2838 33.3464 59.448 33.3464 59.5917 33.512C59.9818 33.9054 60.3513 34.2781 60.7618 34.6301C60.9466 34.7957 61.0082 34.982 61.0082 35.2305C61.0082 36.2864 60.9876 37.3423 61.0287 38.3983C61.0492 39.3093 61.8087 40.0546 62.712 40.0754C64.0052 40.0961 65.278 40.0961 66.5712 40.0754C67.4744 40.0546 68.275 39.33 68.275 38.3569C68.275 37.0732 68.275 35.7895 68.275 34.5058C68.275 33.512 67.4744 32.7666 66.5302 32.7666C65.3395 32.7459 64.1284 32.7666 62.9378 32.7459C62.7941 32.7459 62.6093 32.6631 62.5067 32.5803C61.973 32.0834 61.4392 31.5658 60.9055 31.0482C60.8029 30.9446 60.7413 30.779 60.7413 30.6341C60.7208 28.4394 60.7208 26.224 60.7413 24.0293C60.7413 23.8844 60.8234 23.7187 60.9055 23.6152C62.2398 22.228 63.5741 20.8615 64.9085 19.495C65.0111 19.3915 65.1958 19.3294 65.3395 19.3294C66.3454 19.3087 67.3513 19.3087 68.3777 19.3294C69.4246 19.3294 70.2252 18.6254 70.2457 17.5074C70.2662 16.2858 70.2662 15.0642 70.2457 13.822C70.2252 12.6832 69.4041 11.9793 68.3571 12C67.187 12.0207 65.9964 12.0207 64.8263 12C63.8615 11.9793 62.9583 12.7039 62.9788 13.822C62.9994 14.9607 62.9788 16.0995 62.9788 17.2382C62.9788 17.5074 62.8967 17.7144 62.712 17.9008C61.6035 19.0395 60.4744 20.1783 59.3865 21.3377C59.2222 21.5241 59.058 21.5655 58.8322 21.4619C58.3806 21.2342 57.8879 21.2342 57.3953 21.2342C55.363 21.2342 53.3102 21.2342 51.278 21.2342C50.929 21.2342 50.6005 21.317 50.2516 21.3377C50.1079 21.3377 49.9436 21.2963 49.841 21.2135C49.5126 20.9443 49.2046 20.6338 48.9378 20.3232C48.8146 20.1783 48.712 19.9712 48.712 19.7849C48.6914 18.936 48.712 18.0871 48.6914 17.2382C48.6914 16.6378 48.4656 16.0995 47.8909 15.8303C47.6856 15.7268 47.4187 15.6854 47.1929 15.6854C46.1255 15.6647 45.0785 15.7061 44.0111 15.6647C43.0052 15.644 42.451 16.2651 42.4304 17.1761C42.3894 18.1906 42.3894 19.2673 42.4304 20.3232C42.4715 21.2963 43.1079 21.876 44.0727 21.876C44.8527 21.876 45.6123 21.876 46.3923 21.876C46.6181 21.876 46.7823 21.9381 46.9466 22.1038C47.2955 22.4765 47.6445 22.8077 48.014 23.1597C48.1577 23.3047 48.1988 23.4496 48.1577 23.6566C48.1167 23.8844 48.0961 24.1121 48.0961 24.3399C48.0961 26.431 48.0961 28.5222 48.0961 30.6341C48.0961 31.1517 48.1782 31.6486 48.404 32.1248C48.4451 32.2283 48.4246 32.4561 48.3425 32.5389C46.8234 34.2988 45.2838 36.038 43.7648 37.7771C42.8205 38.8745 41.8557 39.9511 40.9114 41.0485C40.7266 41.2555 40.5624 41.3176 40.2955 41.2762C39.885 41.2141 39.4744 41.1727 39.0639 41.1727C36.6005 41.1727 34.1372 41.1727 31.6738 41.1727C29.9906 41.1727 28.5331 42.3529 28.1636 43.8643C28.0815 44.237 27.9994 44.6304 27.9994 45.0237C27.9788 46.3488 27.9994 47.6532 27.9994 48.9576ZM39.5771 48.9369C39.5771 50.1792 39.5771 51.4008 39.5771 52.643C39.5771 52.995 39.4744 53.0985 39.1255 53.0985C36.7442 53.0985 34.3425 53.0985 31.9612 53.0985C31.6328 53.0985 31.5096 52.995 31.5096 52.6637C31.5096 50.1999 31.5096 47.7153 31.5096 45.2515C31.5096 44.8995 31.6123 44.796 31.9612 44.796C34.3425 44.796 36.7237 44.796 39.1049 44.796C39.495 44.796 39.5771 44.8788 39.5771 45.2722C39.5771 46.4938 39.5771 47.7153 39.5771 48.9369ZM54.3777 24.1535C55.3835 24.1535 56.3689 24.1535 57.3747 24.1535C57.6621 24.1535 57.7648 24.2571 57.7648 24.5469C57.7648 24.7333 57.7648 24.9196 57.7648 25.1059C57.7648 26.8865 57.7648 28.6671 57.7648 30.4477C57.7648 30.8618 57.6826 30.9239 57.2926 30.9239C55.363 30.9239 53.4128 30.9239 51.4832 30.9239C51.0932 30.9239 51.0111 30.8411 51.0111 30.4684C51.0111 28.5222 51.0111 26.5553 51.0111 24.609C51.0111 24.2364 51.0727 24.1742 51.4422 24.1742C52.407 24.1535 53.3923 24.1535 54.3777 24.1535ZM68.5214 15.644C68.5214 16.1823 68.5214 16.7206 68.5214 17.2382C68.5214 17.5902 68.4803 17.6316 68.1313 17.6316C67.0844 17.6316 66.058 17.6316 65.0111 17.6316C64.6416 17.6316 64.5595 17.5695 64.5595 17.1761C64.5595 16.1409 64.5595 15.1263 64.5595 14.0911C64.5595 13.6977 64.6211 13.6356 64.9906 13.6356C66.0375 13.6356 67.0844 13.6356 68.1313 13.6356C68.3982 13.6356 68.5008 13.7391 68.5008 14.0083C68.5214 14.5466 68.5214 15.0849 68.5214 15.644ZM62.6299 36.4728C62.6299 35.9137 62.6299 35.3754 62.6299 34.8164C62.6299 34.5679 62.753 34.423 62.9994 34.423C64.0463 34.423 65.1137 34.423 66.1606 34.423C66.4891 34.423 66.5712 34.5265 66.5712 34.8578C66.5712 35.9137 66.5712 36.9697 66.5712 38.0256C66.5712 38.3569 66.5096 38.419 66.1812 38.419C65.1137 38.419 64.0668 38.419 63.0199 38.419C62.753 38.419 62.6299 38.3155 62.6299 38.0256C62.6299 37.508 62.6299 36.9904 62.6299 36.4728Z" fill="#FFB71B"/>
<path fill-rule="evenodd" clip-rule="evenodd" d="M37.1552 53.1605L40.5423 60.6556H36.7241L33.2344 53.1191L37.1552 53.1605Z" fill="#FFB71B"/>
</g>
<defs>
<clipPath id="clip0_1_1242">
<rect width="56" height="48.6557" fill="white" transform="translate(28 12)"/>
</clipPath>
</defs>
</svg>
