<svg id="Visa" xmlns="http://www.w3.org/2000/svg" viewBox="0 0 26 16" width="26px" height="16px"><title>icon-paypal-small</title><rect width="26" height="16" rx="2" ry="2" fill="#2464b4"/><path d="M16.64,7.19c0,.19,0,.39-.06.59a2.47,2.47,0,0,1-2.72,2.16h-.21a.34.34,0,0,0-.33.29L13,12.08a.33.33,0,0,1-.33.28h-1a.23.23,0,0,1-.23-.23v0L12,8.87l0,0h.78A3.18,3.18,0,0,0,16.24,6.1,1.49,1.49,0,0,1,16.64,7.19ZM11.46,8.73a.42.42,0,0,1,.42-.43h.91A2.63,2.63,0,0,0,15.71,6c.29-1.5-.77-2.34-2.2-2.34H10.84a.39.39,0,0,0-.38.33c-.83,5.39-1.08,6.76-1.1,7.18a.22.22,0,0,0,.22.24h1.47Z" fill="#fff"/></svg>